<svg width="60" height="49" viewBox="0 0 60 49" fill="none" xmlns="http://www.w3.org/2000/svg">
<path id="Vector" d="M2.33789 12.2136L19.0677 23.3669C23.0063 25.9925 24.9757 27.3054 27.104 27.8156C28.9851 28.2662 30.946 28.2662 32.8272 27.8156C34.9554 27.3054 36.925 25.9925 40.8635 23.3669L57.5932 12.2136M12.1611 45.9808H47.7701C51.2085 45.9808 52.9279 45.9808 54.2411 45.3116C55.3962 44.7231 56.3356 43.7838 56.924 42.6286C57.5932 41.3154 57.5932 39.596 57.5932 36.1576V12.8276C57.5932 9.38915 57.5932 7.66991 56.924 6.35661C56.3356 5.20138 55.3962 4.26216 54.2411 3.67357C52.9279 3.00439 51.2085 3.00439 47.7701 3.00439H12.1611C8.72265 3.00439 7.00341 3.00439 5.69011 3.67357C4.53487 4.26216 3.59566 5.20138 3.00706 6.35661C2.33789 7.66991 2.33789 9.38912 2.33789 12.8276V36.1576C2.33789 39.596 2.33789 41.3154 3.00706 42.6286C3.59566 43.7838 4.53487 44.7231 5.69011 45.3116C7.00341 45.9808 8.72262 45.9808 12.1611 45.9808Z" stroke="white" stroke-width="4.60461" stroke-linecap="round" stroke-linejoin="round"/>
</svg>
