<svg width="56" height="53" viewBox="0 0 56 53" fill="none" xmlns="http://www.w3.org/2000/svg">
<path id="Vector" fill-rule="evenodd" clip-rule="evenodd" d="M0.6875 7.78714C0.6875 3.62578 4.06097 0.252319 8.22232 0.252319H19.37C22.8274 0.252319 25.8412 2.60542 26.6799 5.95967L27.7646 10.2987H32.0826H48.408C52.5695 10.2987 55.9429 13.6722 55.9429 17.8336V22.8568C55.9429 24.2439 54.8184 25.3684 53.4313 25.3684C52.0441 25.3684 50.9196 24.2439 50.9196 22.8568V17.8336C50.9196 16.4465 49.7952 15.322 48.408 15.322H32.0826H27.7646H8.22232C6.83521 15.322 5.71071 16.4465 5.71071 17.8336V20.3452V42.9496C5.71071 44.3368 6.83521 45.4612 8.22232 45.4612H20.7804C22.1675 45.4612 23.292 46.5857 23.292 47.9729C23.292 49.36 22.1675 50.4845 20.7804 50.4845H8.22232C4.06097 50.4845 0.6875 47.1111 0.6875 42.9496V20.3452V17.8336V7.78714ZM5.71071 10.7275C6.49629 10.4498 7.34165 10.2987 8.22232 10.2987H22.5868L21.8066 7.17798C21.5271 6.05991 20.5225 5.27553 19.37 5.27553H8.22232C6.83521 5.27553 5.71071 6.40003 5.71071 7.78714V10.7275ZM48.839 42.3403C50.1539 40.3552 50.9196 37.9744 50.9196 35.4148C50.9196 28.4793 45.2972 22.8568 38.3616 22.8568C31.4261 22.8568 25.8036 28.4793 25.8036 35.4148C25.8036 42.3504 31.4261 47.9729 38.3616 47.9729C40.9212 47.9729 43.3019 47.2071 45.2871 45.8922L51.6553 52.2604C52.6361 53.2412 54.2264 53.2412 55.2072 52.2604C56.188 51.2796 56.188 49.6893 55.2072 48.7085L48.839 42.3403ZM30.8268 35.4148C30.8268 31.2533 34.2001 27.88 38.3616 27.88C42.5231 27.88 45.8964 31.2533 45.8964 35.4148C45.8964 39.5763 42.5231 42.9496 38.3616 42.9496C34.2001 42.9496 30.8268 39.5763 30.8268 35.4148Z" fill="white"/>
</svg>
