<svg width="56" height="60" viewBox="0 0 56 60" fill="none" xmlns="http://www.w3.org/2000/svg">
<path id="Vector" fill-rule="evenodd" clip-rule="evenodd" d="M28.8377 6.06732C28.3333 5.9204 27.7973 5.9204 27.2925 6.06732C27.1475 6.10962 26.8922 6.21543 26.3493 6.62645C25.7786 7.05871 25.0796 7.67734 23.9905 8.64544L9.51466 21.5128C7.74001 23.0903 7.23692 23.566 6.88715 24.0921C6.55071 24.5982 6.30007 25.1563 6.14533 25.7439C5.98445 26.355 5.96318 27.0468 5.96318 29.4214V43.2379C5.96318 45.6442 5.96542 47.2801 6.07035 48.5437C6.17254 49.7745 6.3577 50.4028 6.5853 50.8407C7.10953 51.8499 7.93238 52.6729 8.94159 53.197C9.37967 53.4247 10.0079 53.6098 11.2385 53.712C12.5022 53.817 14.1381 53.8192 16.5445 53.8192H17.0142V45.531C17.0142 39.4278 21.9619 34.48 28.0653 34.48C34.1685 34.48 39.1163 39.4278 39.1163 45.531V53.8192H39.5859C41.9923 53.8192 43.6281 53.817 44.8918 53.712C46.1223 53.6098 46.7506 53.4247 47.1887 53.197C48.198 52.6729 49.0207 51.8499 49.5451 50.8407C49.7727 50.4028 49.9578 49.7745 50.0601 48.5437C50.1648 47.2801 50.1672 45.6442 50.1672 43.2379V29.4214C50.1672 27.0468 50.146 26.355 49.9849 25.7439C49.8302 25.1563 49.5796 24.5982 49.2431 24.0921C48.8933 23.566 48.3903 23.0903 46.6157 21.5128L32.1398 8.64544C31.0507 7.67734 30.3517 7.05871 29.7809 6.62645C29.2381 6.21543 28.9828 6.10962 28.8377 6.06732ZM25.7476 0.762217C27.2613 0.321449 28.869 0.321449 30.3827 0.762217C31.4328 1.06808 32.3036 1.60593 33.1161 2.22114C33.8814 2.80054 34.7434 3.56662 35.7358 4.4488L50.2866 17.383C50.3651 17.4526 50.4421 17.5213 50.5187 17.5891C51.96 18.8688 53.0485 19.8356 53.8447 21.0331C54.5175 22.0453 55.0189 23.1616 55.3283 24.3371C55.6944 25.7276 55.6938 27.1836 55.6927 29.1109C55.6927 29.2131 55.6927 29.3164 55.6927 29.4214V43.3539C55.6927 45.6152 55.6927 47.4817 55.5665 49.0012C55.4355 50.5796 55.154 52.0298 54.4484 53.3879C53.3999 55.4064 51.7542 57.0519 49.736 58.1003C48.3775 58.806 46.9277 59.0875 45.349 59.2184C43.8295 59.3447 41.9633 59.3447 39.7017 59.3447H38.5775C38.556 59.3447 38.5344 59.3447 38.5123 59.3447C38.1778 59.3447 37.7783 59.345 37.4263 59.3157C37.0182 59.282 36.4342 59.195 35.8245 58.8781C35.0675 58.4849 34.4503 57.8677 34.0571 57.111C33.7405 56.501 33.6535 55.917 33.6195 55.5089C33.5902 55.1572 33.5905 54.7574 33.5905 54.4229L33.5908 45.531C33.5908 42.4792 31.1167 40.0055 28.0653 40.0055C25.0136 40.0055 22.5397 42.4792 22.5397 45.531L22.5397 54.4229C22.5398 54.7574 22.5401 55.1572 22.5108 55.5089C22.4769 55.917 22.3898 56.501 22.0731 57.111C21.6799 57.8677 21.0628 58.4849 20.3059 58.8781C19.6961 59.195 19.112 59.282 18.704 59.3157C18.3521 59.345 17.9525 59.3447 17.6179 59.3447C17.5959 59.3447 17.5743 59.3447 17.5529 59.3447H16.4285C14.1671 59.3447 12.3008 59.3447 10.7812 59.2184C9.20272 59.0875 7.75272 58.806 6.39444 58.1003C4.37607 57.0519 2.73035 55.4064 1.68189 53.3879C0.976341 52.0298 0.6949 50.5796 0.563808 49.0012C0.437633 47.4817 0.437661 45.6152 0.437689 43.3539V29.4214C0.437689 29.3164 0.437633 29.2131 0.437606 29.1109C0.436583 27.1836 0.435837 25.7276 0.801956 24.3371C1.11147 23.1616 1.61277 22.0453 2.28566 21.0331C3.08166 19.8356 4.17043 18.8688 5.61168 17.5891C5.68804 17.5213 5.76537 17.4526 5.84372 17.383L20.3946 4.44882C21.387 3.56662 22.2488 2.80054 23.0142 2.22114C23.8267 1.60593 24.6975 1.06808 25.7476 0.762217Z" fill="white"/>
</svg>
