<svg width="56" height="56" viewBox="0 0 56 56" fill="none" xmlns="http://www.w3.org/2000/svg">
<g id="icon">
<path id="Vector" d="M52.0873 0.00012207H4.19932C2.16487 0.00012207 0.515625 1.64937 0.515625 3.68381V11.0512C0.515625 13.0856 2.16487 14.7349 4.19932 14.7349H52.0873C54.1217 14.7349 55.771 13.0856 55.771 11.0512V3.68381C55.771 1.64937 54.1217 0.00012207 52.0873 0.00012207Z" fill="white"/>
<path id="Vector_2" d="M21.6968 20.2604H4.19932C2.16487 20.2604 0.515625 21.9096 0.515625 23.9441V31.3114C0.515625 33.3459 2.16487 34.9951 4.19932 34.9951H21.6968C23.7313 34.9951 25.3805 33.3459 25.3805 31.3114V23.9441C25.3805 21.9096 23.7313 20.2604 21.6968 20.2604Z" fill="white"/>
<path id="Vector_3" d="M21.6968 40.5208H4.19932C2.16487 40.5208 0.515625 42.17 0.515625 44.2044V51.5718C0.515625 53.6063 2.16487 55.2555 4.19932 55.2555H21.6968C23.7313 55.2555 25.3805 53.6063 25.3805 51.5718V44.2044C25.3805 42.17 23.7313 40.5208 21.6968 40.5208Z" fill="white"/>
<path id="Vector_4" d="M52.0875 20.2604H34.5899C32.5555 20.2604 30.9062 21.9096 30.9062 23.9441V31.3114C30.9062 33.3459 32.5555 34.9951 34.5899 34.9951H52.0875C54.1219 34.9951 55.7712 33.3459 55.7712 31.3114V23.9441C55.7712 21.9096 54.1219 20.2604 52.0875 20.2604Z" fill="white"/>
<path id="Vector_5" d="M52.0875 40.5208H34.5899C32.5555 40.5208 30.9062 42.17 30.9062 44.2044V51.5718C30.9062 53.6063 32.5555 55.2555 34.5899 55.2555H52.0875C54.1219 55.2555 55.7712 53.6063 55.7712 51.5718V44.2044C55.7712 42.17 54.1219 40.5208 52.0875 40.5208Z" fill="white"/>
</g>
</svg>
