<svg xmlns="http://www.w3.org/2000/svg" viewBox="0 0 75.11 79.29"><defs><style>.cls-1{fill:#fff;}</style></defs><g id="Layer_2" data-name="Layer 2"><g id="Layer_1-2" data-name="Layer 1"><path class="cls-1" d="M36.5,23l7-12h26l-17,26,22,39a2.14,2.14,0,0,1,0,3,2.17,2.17,0,0,1-3-1q-14-20-28-40l13-21h-10l-10,16q-5-9.49-10-19c-.33-.8-.38-1.64,0-2s1.89-.27,3,1Q33,18,36.5,23Z"/><path class="cls-1" d="M38.6,56.29l-7,12H5.6l17-26-22-39a2.16,2.16,0,0,1,0-3,2.16,2.16,0,0,1,3,1q14,20,28,40l-13,21h10l10-16q5,9.49,10,19c.34.79.39,1.63,0,2s-1.88.27-3-1Q42.11,61.28,38.6,56.29Z"/></g></g></svg>